<svg width="91" height="90" viewBox="0 0 91 90" fill="none" xmlns="http://www.w3.org/2000/svg">
<g clip-path="url(#clip0_253_280)">
<path d="M85.2867 15.1017C83.3201 10.799 81.1788 6.90456 79.2571 4.13668C76.8436 0.659547 75.1597 -0.55211 73.8036 0.210877L73.7969 0.212971L67.8637 3.55965C66.8731 4.11886 66.6676 5.65251 66.8902 7.61026L29.4166 28.7513C28.1546 29.4639 28.2591 31.8128 28.9093 34.5406L7.87945 46.4055L7.87575 46.4067L7.87153 46.4099L1.27147 50.1337C-0.0249553 50.8644 0.34025 52.9918 0.804213 54.7632C1.29388 56.6373 2.16563 58.9863 3.25921 61.3776C4.35175 63.7689 5.54513 65.9368 6.61857 67.4822C7.45562 68.6897 8.50998 69.98 9.58126 69.98C9.80645 69.98 10.0328 69.9227 10.2579 69.7958L16.8643 66.0689L37.8964 54.2036C39.4278 56.3418 40.6265 57.3711 41.6403 57.3711C41.907 57.3711 42.1603 57.3008 42.4045 57.1632L44.4887 55.9876V88.7171C44.4887 89.4211 45.0018 89.9918 45.6361 89.9918H59.7838C60.4179 89.9918 60.9311 89.4211 60.9311 88.7171V46.7112L79.8389 36.045C80.8994 37.1962 81.7943 37.7601 82.5773 37.7601C82.8641 37.7601 83.1364 37.686 83.3964 37.5391L89.3295 34.1918C89.4814 34.106 89.6034 33.9846 89.7029 33.8454C92.3276 30.9796 86.5283 17.819 85.2867 15.1017ZM83.2406 16.2557C84.2311 18.423 84.8676 20.2174 85.2329 21.5151C84.5057 20.4215 83.5767 18.792 82.5862 16.6254C81.5957 14.4575 80.9593 12.6619 80.5928 11.3642C81.32 12.4584 82.2501 14.0878 83.2406 16.2557ZM9.5745 67.3223C8.88311 66.7148 7.20009 64.3689 5.30534 60.2236C3.41049 56.0777 2.69786 53.1841 2.66539 52.2063L7.11521 49.6958C7.46652 51.9769 8.65539 55.0034 9.86583 57.6506C10.9583 60.0419 12.1517 62.2097 13.2251 63.7552C13.4733 64.1134 13.7425 64.4752 14.0237 64.8121L9.5745 67.3223ZM16.187 63.5916C15.5055 63.0061 13.8211 60.673 11.9119 56.4966C10.0028 52.32 9.30049 49.4328 9.27756 48.476L29.6027 37.0091C30.5948 40.1252 31.9627 43.2631 32.6605 44.7903C33.9099 47.524 35.2444 50.0543 36.5179 52.1217L16.187 63.5916ZM58.6363 87.4424H46.7835V43.1539C46.7835 39.5234 49.4425 36.5701 52.7099 36.5701C55.9773 36.5701 58.6363 39.5234 58.6363 43.1539V87.4424ZM60.9311 43.8516V43.1539C60.9311 38.118 57.2435 34.0206 52.7099 34.0206C48.1763 34.0206 44.4887 38.118 44.4887 43.1539V53.128L41.5932 54.7613C40.6778 54.2111 37.8832 50.5843 34.7066 43.6363C31.531 36.6883 30.5438 32.0408 30.6851 30.8955L67.3612 10.2043C68.5162 15.0382 71.1206 20.9329 71.9054 22.6504C73.8731 26.9538 76.0144 30.8476 77.9361 33.6154C78.0493 33.7786 78.1556 33.9197 78.2656 34.0728L60.9311 43.8516ZM82.5234 35.1721C81.4825 34.714 77.9989 30.349 73.9515 21.4964C69.9053 12.6439 68.7893 6.94313 69.0695 5.73876L72.7216 3.67894C72.8058 4.69713 73.036 5.93004 73.4271 7.42553C74.3045 10.7809 75.872 14.9991 77.8386 19.303C79.8062 23.6064 81.9475 27.5008 83.8692 30.2681C84.726 31.5023 85.486 32.4346 86.1766 33.1109L82.5234 35.1721ZM88.163 31.6418C86.8588 30.6447 83.6104 26.2983 79.8847 18.1491C76.16 9.99794 74.9174 4.5207 74.9634 2.76301C75.6779 3.30902 76.9789 4.86847 78.6196 7.50086C77.573 8.28468 77.8817 10.1527 78.2947 11.7301C78.744 13.4455 79.5406 15.5934 80.5402 17.7793C82.2388 21.4964 84.564 25.6679 86.4431 25.6679C86.5921 25.6679 86.7371 25.631 86.8803 25.576C87.8232 28.5956 88.1882 30.6794 88.163 31.6418Z" fill="#F81275"/>
<path d="M52.7099 38.9283C50.5496 38.9283 48.7927 40.8809 48.7927 43.2803C48.7927 45.6797 50.5496 47.6322 52.7099 47.6322C54.8703 47.6322 56.6272 45.6797 56.6272 43.2803C56.6272 40.8809 54.8703 38.9283 52.7099 38.9283ZM52.7099 45.0828C51.8157 45.0828 51.0874 44.2742 51.0874 43.2803C51.0874 42.2863 51.8157 41.4777 52.7099 41.4777C53.6041 41.4777 54.3324 42.2863 54.3324 43.2803C54.3324 44.2742 53.6041 45.0828 52.7099 45.0828Z" fill="#F81275"/>
</g>
<defs>
<clipPath id="clip0_253_280">
<rect width="90" height="90" fill="white" transform="translate(0.241394)"/>
</clipPath>
</defs>
</svg>
